<?xml version="1.0" encoding="UTF-8" standalone="no"?>
<svg
   xmlns:dc="http://purl.org/dc/elements/1.1/"
   xmlns:cc="http://creativecommons.org/ns#"
   xmlns:rdf="http://www.w3.org/1999/02/22-rdf-syntax-ns#"
   xmlns:svg="http://www.w3.org/2000/svg"
   xmlns="http://www.w3.org/2000/svg"
   xmlns:sodipodi="http://sodipodi.sourceforge.net/DTD/sodipodi-0.dtd"
   xmlns:inkscape="http://www.inkscape.org/namespaces/inkscape"
   version="1.1"
   viewBox="0 0 64 64"
   enable-background="new 0 0 87.315 87.315"
   id="svg14"
   sodipodi:docname="Basketball.svg"
   width="64"
   height="64">
  <metadata
     id="metadata20">
    <rdf:RDF>
      <cc:Work
         rdf:about="">
        <dc:format>image/svg+xml</dc:format>
        <dc:type
           rdf:resource="http://purl.org/dc/dcmitype/StillImage" />
        <dc:title></dc:title>
      </cc:Work>
    </rdf:RDF>
  </metadata>
  <defs
     id="defs18" />
  <g
     id="g12"
     transform="translate(0.78789763,-18.171711)">
    <path
       d="m 31.24201,81.427005 c 7.783,0 15.353,-3.044 21.008,-8.277 0.38,-0.309 0.723,-0.71 1.024,-1.011 C 59.7,65.723 63.005,56.819 62.34,47.761 61.82,40.292 58.619,33.23 53.314,27.916 52.877,27.489 52.365,26.994 51.83,26.545 51.805,26.523 51.777,26.504 51.752,26.481 51.75,26.479 51.749,26.477 51.747,26.476 51.746,26.475 51.745,26.475 51.744,26.474 46.661,22.001 40.4,19.372 33.627,18.864 33.604,18.861 33.581,18.858 33.558,18.856 33.545,18.855 33.531,18.853 33.518,18.852 24.463,18.177 15.59,21.473 9.156,27.897 9.014,28.039 8.875,28.182 8.743,28.342 2.607,34.686 -0.55,43.39 0.079,52.232 c 0.002,0.026 0.007,0.051 0.008,0.077 0.001,0.006 0.001,0.012 0.002,0.019 0.497,6.817 3.139,13.12 7.616,18.191 0.484,0.591 0.989,1.11 1.418,1.539 5.303,5.313 12.331,8.762 19.778,9.281 0,0 1.59901,0.088 2.34101,0.088 z M 59.535,46.273 c -7.755,-0.22 -15.34,2.472 -21.211,7.526 -1.39,-1.522 -2.816,-3.044 -4.271,-4.557 6.067,-6.175 11.792,-12.722 17.055,-19.504 0.123,0.106 0.238,0.21 0.339,0.308 4.385,4.395 6.923,10.107 8.088,16.227 z M 9.102,67.483 C 5.91,63.485 3.911,58.773 3.256,53.69 c 0.181,0.003 0.363,0.02 0.544,0.02 8.075,0 15.843,-3.13 21.693,-8.788 1.339,1.288 2.491,2.414 3.55,3.474 0.279,0.275 0.557,0.551 0.831,0.829 C 23.288,55.77 16.306,61.901 9.102,67.483 Z M 27.547,42.736 c 4.91,-5.752 7.56,-13.146 7.432,-20.711 5.067,0.651 9.8,2.631 13.811,5.81 -5.191,6.695 -10.839,13.157 -16.825,19.253 -0.271,-0.274 -0.536,-0.553 -0.808,-0.821 -1.074,-1.073 -2.246,-2.219 -3.61,-3.531 z M 31.973,21.78 c 0.189,6.877 -2.165,13.618 -6.613,18.898 -4.331,-4.046 -8.773,-7.887 -13.247,-11.456 5.219,-4.802 12.024,-7.456 19.083,-7.456 0.252,0 0.515,0.007 0.777,0.014 z m -21.955,9.605 c 4.486,3.569 8.943,7.419 13.288,11.478 -5.449,5.229 -12.749,8.042 -20.293,7.832 -0.172,-7.098 2.334,-14.005 7.005,-19.31 z m 1.05,38.369 c 7.24,-5.62 14.257,-11.787 20.885,-18.371 1.421,1.479 2.827,2.969 4.186,4.457 -5.719,5.952 -8.829,13.89 -8.697,22.096 -6.105,-0.799 -11.805,-3.599 -16.197,-8 -0.055,-0.055 -0.119,-0.123 -0.177,-0.182 z m 19.382,8.423 c -0.197,-7.438 2.565,-14.648 7.701,-20.084 3.929,4.42 7.657,8.971 11.114,13.569 -5.23,4.379 -11.954,6.71 -18.815,6.515 z m 21.135,-8.419 c -3.503,-4.654 -7.278,-9.259 -11.255,-13.73 5.389,-4.618 12.369,-7.035 19.478,-6.74 -0.27,7.626 -2.862,15.006 -8.223,20.47 z"
       id="path2" />
  </g>
</svg>
