<?xml version="1.0" encoding="UTF-8" standalone="no"?>
<svg
   xmlns:dc="http://purl.org/dc/elements/1.1/"
   xmlns:cc="http://creativecommons.org/ns#"
   xmlns:rdf="http://www.w3.org/1999/02/22-rdf-syntax-ns#"
   xmlns:svg="http://www.w3.org/2000/svg"
   xmlns="http://www.w3.org/2000/svg"
   xmlns:sodipodi="http://sodipodi.sourceforge.net/DTD/sodipodi-0.dtd"
   xmlns:inkscape="http://www.inkscape.org/namespaces/inkscape"
   version="1.1"
   viewBox="0 0 63.999999 63.999999"
   enable-background="new 0 0 87.679 87.679"
   id="svg903"
   sodipodi:docname="Football.svg"
   width="64"
   height="64">
  <metadata
     id="metadata909">
    <rdf:RDF>
      <cc:Work
         rdf:about="">
        <dc:format>image/svg+xml</dc:format>
        <dc:type
           rdf:resource="http://purl.org/dc/dcmitype/StillImage" />
        <dc:title></dc:title>
      </cc:Work>
    </rdf:RDF>
  </metadata>
  <g
     id="g901"
     transform="translate(0.72222312,-18.391784)">
    <path
       d="m 62.434,47.433 c -0.333,-3.626 -1.28,-7.117 -2.815,-10.375 -10e-4,-0.002 -10e-4,-0.003 -0.002,-0.005 -1.518,-3.24 -3.585,-6.182 -6.137,-8.733 -0.518,-0.53 -1.019,-0.995 -1.495,-1.393 -1.457,-1.292 -3.054,-2.458 -4.749,-3.466 -0.002,-10e-4 -0.003,-0.002 -0.004,-0.003 -0.957,-0.565 -1.882,-1.05 -2.826,-1.481 -2.741,-1.261 -5.652,-2.11 -8.655,-2.524 -0.69,-0.094 -1.38,-0.167 -2.083,-0.22 -0.586,-0.042 -1.207,0.087 -1.727,0.081 -1.982,-0.042 -3.977,-0.405 -5.924,0.595 -0.005,0 -0.009,0 -0.014,0 -3.96,0 -7.691,1.726 -11.08,3.845 -1.638,1.008 -3.208,2.155 -4.665,3.155 0,0 -10e-4,0 -10e-4,0 -10e-4,0 -0.002,0.234 -0.003,0.235 -0.003,0.003 -0.007,0.122 -0.011,0.126 -10e-4,0.001 -10e-4,0.06 -0.002,0.06 -0.315,0.283 -0.629,0.605 -0.932,0.909 -0.141,0.141 -0.29,0.308 -0.423,0.47 -2.352,2.434 -4.423,5.2 -5.845,8.203 -1.398,2.911 -1.921,6.016 -2.921,9.214 0,0 0,0.001 0,0.002 0,1.755 -0.169,3.562 -0.104,5.407 l 0.139,1.066 c 0.214,3.109 0.919,6.113 2.014,8.933 10e-4,0.002 0.02,0.004 0.021,0.007 0.002,0.006 0.015,0.012 0.017,0.018 0.002,0.005 0.008,0.011 0.01,0.016 10e-4,10e-4 0.004,0.003 0.005,0.004 0.247,0.676 0.542,1.371 0.901,2.123 1.243,2.624 2.849,5.06 4.803,7.277 0.067,0.079 0.135,0.155 0.208,0.228 0.341,0.406 0.723,0.821 1.134,1.232 1.953,1.953 4.154,3.639 6.574,5.028 0.111,0.064 0.222,0.125 0.333,0.183 0.004,0.002 0.008,0.006 0.012,0.008 3.908,2.185 8.361,3.508 12.868,3.826 0.733,0.056 1.477,0.084 2.222,0.084 0.373,0 0.747,-0.008 1.119,-0.021 0.004,0 0.008,-10e-4 0.012,-0.002 3.489,-0.108 6.896,-0.789 10.127,-2.026 0.496,-0.189 0.99,-0.391 1.486,-0.611 0.048,-0.022 0.095,-0.046 0.14,-0.072 3.026,-1.35 5.809,-3.182 8.273,-5.447 0.04,-0.033 0.08,-0.073 0.119,-0.11 0.274,-0.229 0.545,-0.489 0.776,-0.73 l -0.085,-0.088 c 3.861,-3.851 6.874,-8.646 7.874,-13.867 0,-10e-4 0,-10e-4 0,-0.002 0,-10e-4 0,0.316 0,0.316 0,0 0.174,0 0.174,0 h 0.087 c 0.29,-1 0.563,-2.286 0.726,-3.314 0.003,-0.018 0.027,-0.115 0.029,-0.133 0.397,-2.375 0.518,-4.864 0.341,-7.282 -0.009,-0.231 -0.02,-0.513 -0.041,-0.746 z M 51.349,30.43 c 2.125,2.125 3.853,4.55 5.185,7.193 l -5.864,9.428 -8.333,0.812 -7.865,-8.463 1.055,-7.517 11.586,-4.715 c 0.058,-0.023 0.102,-0.065 0.156,-0.094 0.953,0.656 1.883,1.35 2.758,2.126 0.434,0.363 0.863,0.761 1.322,1.23 z M 15.647,62.442 4.769,59.767 C 3.932,57.427 3.402,54.957 3.227,52.413 L 3.168,51.397 c -0.047,-1.355 0.022,-2.7 0.16,-4.023 l 9.865,-4.018 6.415,3.07 1.358,11.283 z m 0.857,-36.061 c 2.83,-1.769 5.919,-2.993 9.188,-3.661 l 6.94,8.215 -1.114,7.936 -10.54,4.884 -6.466,-3.094 -0.886,-12.072 C 13.623,28.543 13.602,28.503 13.595,28.458 14.527,27.699 15.498,27 16.504,26.381 Z m 1.85,49.027 -0.785,-10.659 5.332,-4.743 11.466,2.265 2.447,6.429 -6.118,9.861 C 30.221,78.551 29.746,78.53 29.275,78.494 25.406,78.22 21.738,77.176 18.354,75.408 Z M 51.641,69.974 39.358,66.954 37.1,61.02 l 5.682,-10.185 8.367,-0.815 7.198,8.525 c -1.277,4.27 -3.578,8.196 -6.706,11.429 z" />
  </g>
</svg>
