<?xml version="1.0" encoding="UTF-8" standalone="no"?>
<!-- Created with Inkscape (http://www.inkscape.org/) -->

<svg
   xmlns:dc="http://purl.org/dc/elements/1.1/"
   xmlns:cc="http://creativecommons.org/ns#"
   xmlns:rdf="http://www.w3.org/1999/02/22-rdf-syntax-ns#"
   xmlns:svg="http://www.w3.org/2000/svg"
   xmlns="http://www.w3.org/2000/svg"
   xmlns:sodipodi="http://sodipodi.sourceforge.net/DTD/sodipodi-0.dtd"
   xmlns:inkscape="http://www.inkscape.org/namespaces/inkscape"
   width="120"
   height="45"
   viewBox="0 0 120 45"
   version="1.1"
   id="svg2277"
   inkscape:version="0.92.3 (2405546, 2018-03-11)"
   sodipodi:docname="logo.svg">
  <defs
     id="defs2271" />
  <sodipodi:namedview
     id="base"
     pagecolor="#ffffff"
     bordercolor="#666666"
     borderopacity="1.0"
     inkscape:pageopacity="0.0"
     inkscape:pageshadow="2"
     inkscape:zoom="7.4505806"
     inkscape:cx="50.636913"
     inkscape:cy="13.198889"
     inkscape:document-units="px"
     inkscape:current-layer="layer1"
     showgrid="false"
     units="px"
     inkscape:window-width="1920"
     inkscape:window-height="1024"
     inkscape:window-x="0"
     inkscape:window-y="28"
     inkscape:window-maximized="1" />
  <metadata
     id="metadata2274">
    <rdf:RDF>
      <cc:Work
         rdf:about="">
        <dc:format>image/svg+xml</dc:format>
        <dc:type
           rdf:resource="http://purl.org/dc/dcmitype/StillImage" />
        <dc:title></dc:title>
      </cc:Work>
    </rdf:RDF>
  </metadata>
  <g
     inkscape:label="Layer 1"
     inkscape:groupmode="layer"
     id="layer1"
     transform="translate(0,-1077.5197)">
    <rect
       style="opacity:1;fill:#343a40;fill-opacity:1;stroke:none;stroke-width:0.99999994;stroke-linecap:square;stroke-miterlimit:4;stroke-dasharray:none;stroke-opacity:1"
       id="rect2889"
       width="120"
       height="45"
       x="0"
       y="1077.5197" />
    <path
       style="fill:#ffffff;stroke-width:1"
       d="m 16.348835,1113.9129 c 0.118631,-1.2221 1.128778,-1.4273 2.273746,-0.4618 1.249532,1.0537 2.371748,1.4388 4.192268,1.4388 1.995696,0 3.093859,-0.44 4.628424,-1.8545 1.527271,-1.4078 2.053091,-1.2678 2.053091,0.5468 0,1.1049 0.07847,1.3077 0.505927,1.3077 0.549752,0 0.830375,-0.4946 0.830375,-1.4637 v -0.6183 l 1.670379,0.527 c 2.191312,0.6915 3.82882,0.5378 4.66824,-0.438 0.925093,-1.0755 0.811604,-2.711 -0.419374,-6.0437 -0.566242,-1.533 -1.349471,-3.69 -1.740508,-4.7933 -1.34562,-3.7967 -1.83209,-4.2551 -5.571148,-5.25 -3.501758,-0.9317 -3.335511,-0.8496 -2.666699,-1.318 0.317147,-0.2221 0.909188,-0.9696 1.315644,-1.661 0.606702,-1.0322 0.737401,-1.5682 0.730005,-2.9944 -0.0098,-1.8941 -0.399648,-2.8747 -1.633052,-4.1082 -4.271459,-3.7446 -10.145407,-0.21 -10.245167,4.1664 0.0067,1.6125 0.66586,3.2488 1.687831,4.1899 0.748984,0.6898 0.714787,1.0971 -0.09211,1.0971 -0.277724,0 -1.468481,0.3044 -2.646126,0.6764 -2.139451,0.6759 -3.511758,1.556 -4.079199,2.6163 -0.700005,1.3079 -3.963122,10.7389 -3.963122,11.4539 0,1.1493 0.663827,2.236 1.603518,2.6253 0.830051,0.3438 4.14354,0.2534 5.144812,-0.1405 0.385883,-0.1518 0.467706,-0.035 0.467706,0.665 0,0.7276 0.08601,0.8368 0.601336,0.7636 0.456474,-0.065 0.621058,-0.2885 0.683206,-0.9288 z m 5.664232,-0.3398 c -0.514476,-0.1051 -1.349126,-0.408 -1.854776,-0.673 l -0.919364,-0.4817 0.701317,-0.511 c 0.977601,-0.7121 1.400242,-2.0969 1.005265,-3.2936 -0.337681,-1.0232 -1.506141,-2.009 -2.381271,-2.009 -0.713609,0 -0.704487,-0.2411 0.0516,-1.3635 1.370369,-2.0345 4.339819,-2.7372 6.712673,-1.5885 0.651603,0.3153 1.343966,0.7653 1.538588,0.9998 0.300355,0.3619 0.274548,0.471 -0.170694,0.7216 -0.288503,0.1624 -0.858942,0.6387 -1.267642,1.0585 -1.284376,1.3191 -0.820011,3.7129 0.892012,4.5983 l 0.824272,0.4262 -0.628352,0.6727 c -1.177939,1.2611 -2.820345,1.7875 -4.503629,1.4432 z m -12.557384,-1.6159 c -0.177374,-0.3314 -0.265117,-0.9797 -0.194985,-1.4407 0.14297,-0.9398 3.146332,-9.3308 3.774548,-10.5456 0.992415,-1.9191 8.211596,-3.4914 12.601314,-2.7445 2.934146,0.4993 6.095759,1.5451 6.715258,2.2213 0.306944,0.3351 1.433353,3.0642 2.503134,6.0648 1.819787,5.1041 1.920179,5.5 1.558837,6.147 -0.706138,1.2642 -1.860206,1.0778 -8.455267,-1.3663 -0.772314,-0.2863 -1.523984,-0.7443 -1.670378,-1.0178 -0.474778,-0.8871 -0.308686,-1.8286 0.405105,-2.2963 0.79288,-0.5195 1.588648,-0.4077 4.213061,0.5917 1.839688,0.7005 2.598962,0.6997 2.598962,0 0,-0.2418 -0.83725,-0.7108 -2.2049,-1.2352 -1.825173,-0.6998 -2.409618,-1.0777 -3.393616,-2.1942 -0.653791,-0.742 -1.676063,-1.5703 -2.271714,-1.8409 -1.571597,-0.7138 -3.951492,-0.6581 -5.626429,0.1317 -1.524966,0.7192 -2.244077,1.4281 -3.067931,3.0245 -0.527681,1.0226 -0.707289,1.1477 -2.046218,1.4256 -1.4253,0.296 -2.036145,0.8334 -1.526494,1.343 0.149128,0.1491 1.068418,0.1024 2.342173,-0.1191 2.450812,-0.4262 3.346067,-0.2596 3.897579,0.7253 0.356979,0.6375 0.356257,0.7964 -0.0066,1.4509 -0.344677,0.6217 -0.777243,0.8285 -2.806236,1.3413 -1.319311,0.3334 -3.437788,0.6811 -4.707727,0.7726 -2.205226,0.1588 -2.323471,0.1392 -2.631478,-0.4363 z m 11.280712,-16.8762 c -2.711802,-1.3424 -3.339897,-5.2704 -1.201217,-7.5123 1.926732,-2.0197 5.830925,-1.6298 7.288085,0.728 1.517087,2.4547 0.670362,5.5198 -1.884946,6.8234 -1.336123,0.6816 -2.772793,0.6683 -4.201922,-0.039 z m 82.548725,9.1788 c 0.23516,-0.2536 0.94584,-1.9645 1.57926,-3.8019 0.63342,-1.8375 1.20597,-3.4911 1.27232,-3.6749 0.0799,-0.2214 -0.15894,-0.3341 -0.70808,-0.3341 -0.8007,0 -0.84866,0.068 -1.41842,2.0045 -0.32434,1.1023 -0.671,1.9141 -0.77037,1.8039 -0.0994,-0.1102 -0.44588,-1.0121 -0.77004,-2.0043 -0.54902,-1.6805 -0.64282,-1.8041 -1.36938,-1.8041 -0.44967,0 -0.77694,0.1415 -0.77277,0.3341 0.004,0.1838 0.47943,1.5251 1.05657,2.9808 1.10721,2.7925 1.10625,3.6339 -0.004,3.6339 -0.37196,0 -0.52512,0.1819 -0.52512,0.6236 0,0.343 0.0894,0.713 0.19859,0.8222 0.30826,0.3083 1.75563,-0.071 2.23159,-0.5837 z m -45.651638,-1.9088 c 0.697475,-0.2651 1.528805,-0.9974 1.528805,-1.3466 0,-0.4259 -1.184028,-0.5253 -1.614751,-0.1355 -0.237485,0.2149 -0.653385,0.3907 -0.924224,0.3907 -0.515057,0 -1.469933,-0.7213 -1.469933,-1.1104 0,-0.1243 1.022271,-0.2259 2.271714,-0.2259 2.520829,0 2.588187,-0.062 1.891879,-1.728 -0.429228,-1.0273 -1.593384,-1.7464 -2.827291,-1.7464 -2.772601,0 -4.182417,3.286 -2.201572,5.1315 1.099294,1.0242 2.082804,1.2507 3.345373,0.7706 z m -2.480103,-3.7106 c 0,-0.7706 1.723929,-1.1624 2.351892,-0.5344 0.575939,0.5759 0.341982,0.7483 -1.01559,0.7483 -0.734966,0 -1.336302,-0.096 -1.336302,-0.2139 z m 10.04854,3.1291 c 0.353035,-0.3317 0.641882,-0.6883 0.641882,-0.7925 0,-0.3713 -1.272315,-0.4251 -1.75213,-0.074 -0.64841,0.4742 -1.322761,0.451 -1.836797,-0.063 -0.754479,-0.7545 -0.451021,-0.9164 1.718104,-0.9164 h 2.138084 l -0.006,-0.8686 c -0.01874,-2.7387 -4.131876,-3.6261 -5.605406,-1.2093 -0.653909,1.0725 -0.681688,2.1491 -0.08166,3.1649 0.9573,1.6205 3.446468,2.0156 4.783864,0.7592 z m -3.367026,-3.1291 c 0,-0.9103 1.950596,-1.1704 2.405345,-0.3207 0.26846,0.5017 0.203249,0.5346 -1.05964,0.5346 -0.740138,0 -1.345705,-0.096 -1.345705,-0.2139 z m 8.59123,3.4671 c 0.09489,-0.099 0.06944,-0.4483 -0.05656,-0.7766 -0.156341,-0.4074 -0.368193,-0.5435 -0.667202,-0.4288 -0.614082,0.2357 -0.909816,-0.3616 -0.914605,-1.8474 -0.0038,-1.177 0.04457,-1.2694 0.664059,-1.2694 0.534522,0 0.668151,-0.1337 0.668151,-0.6682 0,-0.5346 -0.133629,-0.6682 -0.668151,-0.6682 -0.585428,0 -0.668151,-0.1158 -0.668151,-0.9354 0,-0.8611 -0.06364,-0.9353 -0.801782,-0.9353 -0.733334,0 -0.801781,0.078 -0.801781,0.9067 0,0.5595 -0.15354,0.9658 -0.400891,1.0607 -0.22049,0.085 -0.400891,0.3982 -0.400891,0.6967 0,0.3045 0.176108,0.543 0.400891,0.543 0.318168,0 0.400891,0.3859 0.400891,1.8707 0,1.5425 0.09823,1.9691 0.559566,2.4305 0.450815,0.4508 0.749484,0.5246 1.536748,0.3801 0.53745,-0.099 1.054815,-0.2603 1.149705,-0.3591 z m 7.313521,0.1036 c 0.545921,-0.2281 0.984211,-0.2825 1.076232,-0.1336 0.08539,0.1382 0.652802,0.2512 1.260935,0.2512 h 1.105697 l -0.838019,-0.8686 c -0.58309,-0.6044 -0.770974,-0.9905 -0.617623,-1.2695 0.121221,-0.2205 0.303894,-0.7918 0.405939,-1.2695 0.17774,-0.8321 0.150938,-0.8686 -0.637478,-0.8686 -0.699712,0 -0.823018,0.1 -0.823018,0.6682 0,0.803 -0.288221,0.8488 -0.923628,0.1466 -0.452384,-0.4999 -0.44856,-0.5512 0.0922,-1.2387 0.784736,-0.9977 0.729921,-2.0795 -0.140034,-2.7638 -1.942081,-1.5277 -4.534693,0.5844 -3.247494,2.6455 0.272619,0.4365 0.2299,0.6202 -0.26726,1.1494 -1.02231,1.0882 -0.69506,2.771 0.684464,3.5196 0.930684,0.5051 1.715565,0.5137 2.86908,0.032 z m -2.074016,-1.2401 c -0.554061,-0.3227 -0.612613,-1.1292 -0.112135,-1.5446 0.272334,-0.226 0.537132,-0.1055 1.131162,0.5145 0.647903,0.6762 0.710365,0.8508 0.379397,1.06 -0.502393,0.3177 -0.813004,0.311 -1.398424,-0.03 z m 0.250557,-4.1602 c -0.41171,-0.4116 -0.173025,-1.1636 0.369367,-1.1636 0.415729,0 0.531896,0.1441 0.467706,0.5804 -0.0887,0.6027 -0.518272,0.902 -0.837073,0.5832 z m 17.941749,5.5215 c 0.628571,-0.01 0.241698,-1.1978 -0.419479,-1.2917 -0.586776,-0.083 -0.601335,-0.1659 -0.601335,-3.4075 v -3.3222 h -0.801782 -0.801782 l 0.004,3.6748 c 0.0021,2.0211 0.09246,3.8071 0.200444,3.9688 0.283169,0.424 0.916691,0.6292 1.532658,0.4966 0.293986,-0.064 0.69322,-0.1167 0.887184,-0.1188 z m 3.612436,-0.135 c 0.67294,-0.3509 0.804,-0.3493 1.16829,0.015 0.22568,0.2257 0.6062,0.3709 0.8456,0.3229 0.36458,-0.073 0.42204,-0.4118 0.35384,-2.0846 -0.10163,-2.4926 -0.41927,-3.3329 -1.41587,-3.7457 -0.85479,-0.3541 -3.061003,-0.2144 -3.496816,0.2215 -0.148814,0.1488 -0.190683,0.5222 -0.09305,0.8298 0.169224,0.5332 0.215535,0.5397 0.990745,0.1388 0.956261,-0.4945 1.975201,-0.3179 2.156051,0.3737 0.1113,0.4257 -0.0383,0.487 -1.148823,0.4706 -0.99948,-0.014 -1.426678,0.1221 -1.966859,0.6292 -1.800505,1.6907 0.338652,4.0118 2.606892,2.8288 z m -1.426124,-1.3385 c -0.648101,-0.781 0.529802,-1.4954 1.715334,-1.0406 0.53424,0.2051 0.53501,0.4892 0.003,1.0215 -0.5303,0.5303 -1.286878,0.5387 -1.718114,0.019 z m -49.921316,-0.8686 0.07722,-2.3386 0.881007,1.6873 c 1.136693,2.1771 1.652132,2.1622 2.89925,-0.084 l 0.890429,-1.6036 0.0031,2.3386 0.0031,2.3385 h 0.801782 0.801781 v -4.0258 -4.0259 l -0.868597,0.084 c -0.788276,0.076 -0.970709,0.2795 -1.97285,2.2008 l -1.104256,2.1171 -0.813806,-1.4489 c -0.447595,-0.797 -1.002064,-1.7878 -1.232152,-2.2019 -0.327579,-0.5896 -0.578264,-0.7346 -1.155434,-0.6681 l -0.737078,0.085 -0.07396,3.9421 -0.07396,3.9421 h 0.798521 0.798521 z m 40.032675,1.1698 v -1.1686 l 1.387245,-0.1334 c 1.141524,-0.1097 1.525572,-0.288 2.16819,-1.0072 0.673517,-0.7539 0.760695,-1.0251 0.633736,-1.9716 -0.251297,-1.8736 -1.954928,-2.758 -4.857323,-2.5218 l -1.069042,0.087 -0.07396,3.9421 -0.07396,3.9421 h 0.942558 c 0.934867,0 0.942556,-0.01 0.942556,-1.1687 z m 0,-4.0276 c 0,-1.2054 0.0093,-1.218 0.902689,-1.218 1.085927,0 1.571345,0.5072 1.455153,1.5206 -0.07756,0.6764 -0.19912,0.7593 -1.221984,0.8333 l -1.135858,0.082 z"
       id="path2887"
       inkscape:connector-curvature="0"
       sodipodi:nodetypes="ccscsssccccccccccccsccsccsccccccccscccccccccccccccccccccsccccccccsccccccccccccccscccsccssccccscssscsccscsscsccsccccccscssccccsssssscsssccccccsccccsscccccccccccccccsccccsccccccccccccccccccccccccccccccccccccccccccccccccccccccscccsccsscccs" />
  </g>
</svg>
